<svg id="Layer_1" data-name="Layer 1" xmlns="http://www.w3.org/2000/svg" viewBox="0 0 112 92"><title>BirdseyeIcon</title><path d="M100,43.5,97.4,53.9a17,17,0,0,0-1.5,2.2C90.7,65.3,82.8,71,72.4,72.4s-21.1,0-30.3-6.3C34.5,60.9,29.4,54,27.8,44.8c-.1-.5-.6-.9-.9-1.3l-.2-3V37l.2-3.5c1.5-.6.3-1.7.5-2.6l.2-3.5-1.5-.9H26c-2.4-1.9-5.2-2-8-1.9-1.3.1-2.5.4-3.7.6a23.1,23.1,0,0,1,19.6-7c9.4,1,17.8,5,26.2,9,3.4,1.6,4.4,1.4,7.9,2.9l2.9,1.6,4.2,1.8h.4c.3.3.5.7.9.8,7.6,3,15.3,5.2,23.6,4.7h0l.2,1.2v2.3ZM69.1,57.6a10.4,10.4,0,0,1-.4-1c-.9-3.9-1.7-7.7-2.6-11.6-.5-1.7-.8-3.6-1.4-5.3s-1.6-2-3.1-.7l-3.3,3-9.5,8.9c-1.6,1.5-1.2,2.7.9,3.4l9,2.8,7.9,2.3C68.3,59.9,69.1,59.2,69.1,57.6ZM47.4,49.7,60.7,37.3C53.2,36.6,46.1,43.8,47.4,49.7Zm19,11.8c-6.1-1.7-11.5-3.9-17.6-5.2C51.5,62.4,60.3,65.1,66.4,61.5Zm1-21.9-.7.2c1.1,5,2.2,9.9,3.4,14.8a3.9,3.9,0,0,0,.6,1.1C75.3,52.9,72.5,42.2,67.4,39.6Zm11,9.4c-1.2.7-2.5,1.1-2.8,1.8a50.3,50.3,0,0,0-2.4,7.5c-.1.7.7,1.6,1.3,2.2a2,2,0,0,0,1.4-.6A16.3,16.3,0,0,0,78.4,49ZM69.7,65.7a4.4,4.4,0,0,0-5.2-1.6c-1.2.4-2.4.6-3.6.9s-2.5,1.4-2.4,3.4A14.2,14.2,0,0,0,69.7,65.7Zm-1-31.1c-1.1,1.2-.9,2.4.2,3.5s2.6,2.8,4,4.1a2.4,2.4,0,0,0,3.6.1C74.5,38.1,71.9,35.6,68.7,34.6ZM43.8,57.8a15.6,15.6,0,0,0,7.3,8.3c1.1-1.7,1.1-3-.4-4.3a22.8,22.8,0,0,1-2.9-3.3A3,3,0,0,0,43.8,57.8ZM59.5,31.7c-2.4.7-4.6,1.3-6.8,2.1-.6.2-1,1-1.5,1.5s1.6,1.3,2.4,1.2A33,33,0,0,0,59.8,35c.7-.3,1.1-1.4,1.6-2.1ZM42.1,50.3c1.7.6,2.4-.3,2.8-1.5s1.1-4,1.8-5.9.1-2.4-1.5-3C43.1,43.1,41.7,46.5,42.1,50.3Z" fill="white"/><path d="M26.9,43.5c.3.4.8.8.9,1.3,1.6,9.2,6.7,16.1,14.3,21.3,9.2,6.3,19.6,7.7,30.3,6.3s18.3-7.1,23.5-16.3a17,17,0,0,1,1.5-2.2c-.8,3.9-3.1,7-5.8,9.7-4.7,5-10.7,7.8-17.4,9.4A41.9,41.9,0,0,1,36.4,62.7C31.3,57.9,28.5,51.8,27,45A3.8,3.8,0,0,1,26.9,43.5Z" fill="#030202"/><path d="M70.5,31.5c-3.4-1.5-7-2.8-10.4-4.4-8.4-4-16.8-8-26.2-9a23.1,23.1,0,0,0-19.6,7c1.2-.2,2.4-.5,3.7-.6,2.8-.1,5.6,0,8,1.9-3.2-.2-6.5-.6-9.8-.7a16.7,16.7,0,0,0-3.8.6l-.3-.5a5.7,5.7,0,0,1,1.1-1.6,25.8,25.8,0,0,1,20.5-7.1c8.4.7,15.8,4,23.3,7.4" fill="#030202"/><path d="M100,39c-8.3.5-16-1.7-23.6-4.7-.4-.1-.6-.5-.9-.8,1.3.3,2.7.5,4,.9a61.2,61.2,0,0,0,18.9,3.9A3.3,3.3,0,0,1,100,39Z" fill="#030202"/><path d="M75.1,33.4l-4.2-1.8Z" fill="#726d6e"/><path d="M26.7,37v0Z" fill="#726d6e"/><path d="M27.4,30.9c-.2.9,1,2-.5,2.6Z" fill="#030202"/><path d="M26.1,26.5l1.5.9Z" fill="#726d6e"/><path d="M100.2,40.2,100,39Z" fill="#726d6e"/><path d="M100,43.5l.2-1Z" fill="#726d6e"/><path d="M69.1,57.6c0,1.6-.8,2.3-2.5,1.8l-7.9-2.3-9-2.8c-2.1-.7-2.5-1.9-.9-3.4L58.3,42l3.3-3c1.5-1.3,2.4-1.2,3.1.7s.9,3.6,1.4,5.3c.9,3.9,1.7,7.7,2.6,11.6A10.4,10.4,0,0,0,69.1,57.6Zm-9-2.3a5.2,5.2,0,0,0,5.1-5c0-2.3-2.4-4.5-4.8-4.8a5.1,5.1,0,0,0-5.2,4.9A5,5,0,0,0,60.1,55.3Z" fill="#b12424"/><path d="M47.4,49.7c-1.3-5.9,5.8-13.1,13.3-12.4Z" fill="#b12424"/><path d="M66.4,61.5c-6.1,3.6-14.9.9-17.6-5.2C54.9,57.6,60.3,59.8,66.4,61.5Z" fill="#b12424"/><path d="M67.4,39.6c5.1,2.6,7.9,13.3,3.3,16.1a3.9,3.9,0,0,1-.6-1.1c-1.2-4.9-2.3-9.8-3.4-14.8Z" fill="#b12424"/><path d="M78.4,49a16.3,16.3,0,0,1-2.5,10.9,2,2,0,0,1-1.4.6c-.6-.6-1.4-1.5-1.3-2.2a50.3,50.3,0,0,1,2.4-7.5C75.9,50.1,77.2,49.7,78.4,49Z" fill="#b12424"/><path d="M69.7,65.7a14.2,14.2,0,0,1-11.2,2.7c-.1-2,.7-3,2.4-3.4s2.4-.5,3.6-.9A4.4,4.4,0,0,1,69.7,65.7Z" fill="#b12424"/><path d="M68.7,34.6c3.2,1,5.8,3.5,7.8,7.7a2.4,2.4,0,0,1-3.6-.1c-1.4-1.3-2.7-2.7-4-4.1S67.6,35.8,68.7,34.6Z" fill="#b12424"/><path d="M43.8,57.8a3,3,0,0,1,4,.7,22.8,22.8,0,0,0,2.9,3.3c1.5,1.3,1.5,2.6.4,4.3A15.6,15.6,0,0,1,43.8,57.8Z" fill="#b12424"/><path d="M59.5,31.7l1.9,1.2c-.5.7-.9,1.8-1.6,2.1a33,33,0,0,1-6.2,1.5c-.8.1-1.6-.8-2.4-1.2s.9-1.3,1.5-1.5C54.9,33,57.1,32.4,59.5,31.7Z" fill="#b12424"/><path d="M42.1,50.3c-.4-3.8,1-7.2,3.1-10.4,1.6.6,2,1.5,1.5,3s-1.2,3.9-1.8,5.9S43.8,50.9,42.1,50.3Z" fill="#b12424"/><path d="M60.1,55.3a5,5,0,0,1-4.9-4.9,5.1,5.1,0,0,1,5.2-4.9c2.4.3,4.8,2.5,4.8,4.8A5.2,5.2,0,0,1,60.1,55.3Z" fill="#030202"/></svg>